<?xml version="1.0" encoding="utf-8"?>
<svg width="983px" height="231px" viewBox="0 0 983 231" version="1.1" xmlns:xlink="http://www.w3.org/1999/xlink" xmlns="http://www.w3.org/2000/svg">
  <defs>
    <rect width="983" height="231" id="artboard_1" />
    <clipPath id="clip_1">
      <use xlink:href="#artboard_1" clip-rule="evenodd" />
    </clipPath>
  </defs>
  <g id="Artboard" clip-path="url(#clip_1)">
    <g id="Group" transform="translate(20.999992 17.08931)">
      <path d="M0 99.338C0 44.4751 44.4751 0 99.338 0C154.201 0 198.676 44.4751 198.676 99.338C198.676 154.201 154.201 198.676 99.338 198.676C44.4751 198.676 0 154.201 0 99.338Z" id="Ellipse-32" fill="#34E0A1" fill-rule="evenodd" stroke="none" />
      <path d="M0 0L67.9019 0L67.9019 69.7881L26.4063 87.3923L52.8126 31.4361L0 0Z" transform="translate(31.436058 61.99199)" id="Rectangle-47" fill="#166E4E" fill-rule="evenodd" stroke="none" />
      <path d="M0 0L67.9019 0L67.9019 69.7881L26.4063 87.3923L52.8126 31.4361L0 0Z" transform="matrix(-1 0 0 1 167.23984 61.99199)" id="Rectangle-48" fill="#114130" fill-rule="evenodd" stroke="none" />
    </g>
    <g id="Tuitionpad" transform="translate(230.4389 2.0000153)">
      <path d="M178.22 66.5337Q178.22 61.7737 181.44 58.6937Q184.66 55.6137 189.56 55.6137Q194.46 55.6137 197.75 58.6937Q201.04 61.7737 201.04 66.5337Q201.04 71.1537 197.75 74.1637Q194.46 77.1737 189.56 77.1737Q184.66 77.1737 181.44 74.1637Q178.22 71.1537 178.22 66.5337ZM273 66.5337Q273 61.7737 276.22 58.6937Q279.44 55.6137 284.34 55.6137Q289.24 55.6137 292.53 58.6937Q295.82 61.7737 295.82 66.5337Q295.82 71.1537 292.53 74.1637Q289.24 77.1737 284.34 77.1737Q279.44 77.1737 276.22 74.1637Q273 71.1537 273 66.5337ZM83.58 57.0137L2.24 57.0137L2.24 74.3737L33.18 74.3737L33.18 155.014L52.64 155.014L52.64 74.3737L83.58 74.3737L83.58 57.0137ZM670.88 152.004Q678.44 156.554 688.1 156.554Q695.94 156.554 702.38 153.684Q708.82 150.814 712.74 145.774L713.02 155.014L729.68 155.014L729.68 57.0137L711.06 57.0137L711.06 92.9937Q707 88.9337 701.05 86.6237Q695.1 84.3137 688.1 84.3137Q678.44 84.3137 670.88 88.8637Q663.32 93.4137 659.05 101.604Q654.78 109.794 654.78 120.434Q654.78 131.074 659.05 139.264Q663.32 147.454 670.88 152.004ZM230.09 149.834Q236.32 156.134 247.38 156.134Q252.14 156.134 256.13 155.294Q260.12 154.454 264.32 152.494L259.42 138.074Q255.22 140.034 251.16 140.034Q246.96 140.034 244.65 137.584Q242.34 135.134 242.34 130.514L242.34 101.114L260.96 101.114L260.96 85.8537L242.34 85.8537L242.34 66.2537L223.86 68.2137L223.86 85.8537L211.4 85.8537L211.4 101.114L223.86 101.114L223.86 130.514Q223.86 143.534 230.09 149.834ZM325.01 151.934Q333.48 156.554 344.68 156.554Q355.88 156.554 364.35 151.934Q372.82 147.314 377.44 139.124Q382.06 130.934 382.06 120.434Q382.06 109.934 377.44 101.744Q372.82 93.5537 364.35 88.9337Q355.88 84.3137 344.68 84.3137Q333.48 84.3137 325.01 88.9337Q316.54 93.5537 311.92 101.744Q307.3 109.934 307.3 120.434Q307.3 130.934 311.92 139.124Q316.54 147.314 325.01 151.934ZM497.84 85.8537L481.74 85.8537L481.74 185.954L500.36 185.954L500.36 147.874Q504.56 152.074 510.37 154.314Q516.18 156.554 523.04 156.554Q532.84 156.554 540.47 152.004Q548.1 147.454 552.37 139.194Q556.64 130.934 556.64 120.434Q556.64 109.934 552.37 101.674Q548.1 93.4137 540.47 88.8637Q532.84 84.3137 523.04 84.3137Q515.76 84.3137 509.53 86.8337Q503.3 89.3537 499.1 94.1137L497.84 85.8537ZM599.76 156.554Q589.96 156.554 582.33 152.004Q574.7 147.454 570.43 139.194Q566.16 130.934 566.16 120.434Q566.16 109.934 570.43 101.674Q574.7 93.4137 582.33 88.8637Q589.96 84.3137 599.76 84.3137Q607.04 84.3137 613.27 86.8337Q619.5 89.3537 623.7 94.1137L624.96 85.8537L641.06 85.8537L641.06 155.014L624.96 155.014L623.7 146.614Q619.36 151.514 613.2 154.034Q607.04 156.554 599.76 156.554ZM395.78 85.8537L411.88 85.8537L413.14 93.8337Q417.2 89.3537 423.08 86.9037Q428.96 84.4537 435.82 84.4537Q449.12 84.4537 456.96 93.0637Q464.8 101.674 464.8 116.374L464.8 155.014L446.18 155.014L446.18 117.494Q446.18 109.514 442.19 105.104Q438.2 100.694 431.2 100.694Q423.64 100.694 419.02 105.734Q414.4 110.774 414.4 118.754L414.4 155.014L395.78 155.014L395.78 85.8537ZM101.57 147.804Q109.34 156.414 122.36 156.414Q129.22 156.414 135.03 153.964Q140.84 151.514 144.9 147.034L146.16 155.014L162.26 155.014L162.26 85.8537L143.64 85.8537L143.64 122.114Q143.64 130.094 139.09 135.134Q134.54 140.174 127.12 140.174Q120.4 140.174 116.41 135.694Q112.42 131.214 112.42 123.374L112.42 85.8537L93.8 85.8537L93.8 124.494Q93.8 139.194 101.57 147.804ZM180.18 85.8537L198.8 85.8537L198.8 155.014L180.18 155.014L180.18 85.8537ZM274.96 85.8537L293.58 85.8537L293.58 155.014L274.96 155.014L274.96 85.8537ZM331.03 134.644Q325.78 128.974 325.78 120.434Q325.78 111.894 331.03 106.224Q336.28 100.554 344.68 100.554Q353.08 100.554 358.33 106.224Q363.58 111.894 363.58 120.434Q363.58 128.974 358.33 134.644Q353.08 140.314 344.68 140.314Q336.28 140.314 331.03 134.644ZM505.54 134.714Q500.22 129.114 500.22 120.434Q500.22 111.754 505.54 106.154Q510.86 100.554 519.26 100.554Q527.52 100.554 532.84 106.154Q538.16 111.754 538.16 120.434Q538.16 129.114 532.84 134.714Q527.52 140.314 519.26 140.314Q510.86 140.314 505.54 134.714ZM584.64 120.434Q584.64 129.114 589.96 134.714Q595.28 140.314 603.54 140.314Q611.94 140.314 617.26 134.714Q622.58 129.114 622.58 120.434Q622.58 111.754 617.26 106.154Q611.94 100.554 603.54 100.554Q595.28 100.554 589.96 106.154Q584.64 111.754 584.64 120.434ZM678.58 134.714Q673.26 129.114 673.26 120.434Q673.26 111.754 678.58 106.154Q683.9 100.554 692.16 100.554Q700.56 100.554 705.88 106.154Q711.2 111.754 711.2 120.434Q711.2 129.114 705.88 134.714Q700.56 140.314 692.16 140.314Q683.9 140.314 678.58 134.714Z" />
    </g>
  </g>
</svg>