<svg width="78" height="78" viewBox="0 0 78 78" fill="none" xmlns="http://www.w3.org/2000/svg">
<rect width="33" height="31" transform="translate(22 23.1198) rotate(-0.207969)" fill="#12F20D"/>
<path d="M77.0559 38.42C77.1331 59.6829 59.9587 76.9824 38.6959 77.0595C17.4331 77.1367 0.133584 59.9624 0.0564053 38.6995C-0.0207737 17.4367 17.1536 0.137225 38.4164 0.060046C59.6792 -0.0171331 76.9787 17.1572 77.0559 38.42Z" fill="white"/>
<path opacity="0.1" d="M37.5712 25.5978C37.8902 24.7261 39.1216 24.7216 39.4469 25.591L42.1783 32.891C42.3224 33.2763 42.6879 33.534 43.0993 33.5404L51.2038 33.6661C52.1674 33.6811 52.5543 34.9165 51.7713 35.4784L45.4346 40.0262C45.0805 40.2803 44.9318 40.7344 45.0669 41.1486L47.4241 48.3777C47.7162 49.2738 46.72 50.0396 45.9292 49.5267L39.1271 45.1154C38.7939 44.8993 38.3644 44.9009 38.0328 45.1194L31.2629 49.58C30.4759 50.0985 29.4741 49.34 29.7597 48.4418L32.0644 41.1958C32.1964 40.7806 32.0444 40.3276 31.6886 40.0761L25.319 35.5745C24.5319 35.0182 24.9098 33.78 25.8734 33.7581L33.9766 33.5735C34.388 33.5642 34.7516 33.3038 34.893 32.9174L37.5712 25.5978Z" fill="url(#paint0_radial)"/>
<defs>
<radialGradient id="paint0_radial" cx="0" cy="0" r="1" gradientUnits="userSpaceOnUse" gradientTransform="translate(38.5562 38.5598) rotate(89.792) scale(15.5 16.5)">
<stop stop-color="#2BF71A"/>
<stop offset="0.0001" stop-color="#1AFF06" stop-opacity="0.984375"/>
<stop offset="0.765625" stop-color="#A81148" stop-opacity="0.969091"/>
<stop offset="1" stop-color="#1AFF06" stop-opacity="0"/>
</radialGradient>
</defs>
</svg>
