<svg width="242" height="197" viewBox="0 0 242 197" fill="none" xmlns="http://www.w3.org/2000/svg">
<g clip-path="url(#clip0)">
<path d="M70.9331 185.645C71.8567 186.522 72.9907 187.146 74.2259 187.458C75.461 187.769 76.7556 187.758 77.985 187.424C81.136 186.531 83.2744 183.69 85.1724 181.022L90.7885 173.134L86.0555 174.001C82.6517 174.625 79.1637 175.279 76.1995 177.064C73.2352 178.849 70.861 182.034 71.0488 185.487" fill="#E6E6E6"/>
<path d="M66.534 196.271C67.364 193.443 68.1989 190.576 69.6644 187.999C70.966 185.71 72.7444 183.702 75.0906 182.453C76.3351 181.792 77.6855 181.353 79.0809 181.156C79.4448 181.104 79.5041 181.67 79.1419 181.722C76.7259 182.067 74.4819 183.169 72.7335 184.871C70.7953 186.766 69.524 189.209 68.5841 191.723C68.0149 193.244 67.5558 194.801 67.0988 196.358C67.0852 196.432 67.044 196.498 66.9836 196.542C66.9231 196.586 66.848 196.606 66.7737 196.596C66.6991 196.585 66.6323 196.544 66.5877 196.483C66.543 196.422 66.5242 196.346 66.5353 196.272L66.534 196.271Z" fill="#F2F2F2"/>
<path d="M157.93 82.3697C158.47 82.2398 159.031 82.2297 159.575 82.34C160.119 82.4504 160.632 82.6785 161.078 83.0084C161.524 83.3382 161.892 83.7618 162.156 84.2493C162.421 84.7367 162.575 85.2762 162.608 85.8296L175.593 89.4771L170.295 94.0625L158.777 89.8958C157.843 89.8899 156.943 89.5419 156.248 88.9176C155.554 88.2933 155.113 87.4361 155.008 86.5084C154.904 85.5807 155.144 84.647 155.682 83.8842C156.221 83.1214 157.021 82.5826 157.93 82.3697L157.93 82.3697Z" fill="#FFB7B7"/>
<path d="M191.298 192.851L187.513 192.85L185.712 178.263L191.298 178.263L191.298 192.851Z" fill="#FFB7B7"/>
<path d="M192.263 196.517L180.059 196.516V196.362C180.059 195.103 180.559 193.896 181.45 193.006C182.341 192.116 183.549 191.616 184.809 191.616H184.809L192.263 191.616L192.263 196.517Z" fill="#2F2E41"/>
<path d="M213.475 192.851L209.69 192.85L207.89 178.263L213.476 178.263L213.475 192.851Z" fill="#FFB7B7"/>
<path d="M214.441 196.517L202.237 196.516V196.362C202.237 195.103 202.737 193.896 203.628 193.006C204.519 192.116 205.727 191.616 206.987 191.616H206.987L214.441 191.616L214.441 196.517Z" fill="#2F2E41"/>
<path d="M188.205 109.123L182.629 147.712L184.018 188.369L192.391 189.036L195.009 152.574L201.673 132.242L205.591 161.224L205.752 188.369L214.397 189.036L217.412 131.967L215.194 107.148L188.205 109.123Z" fill="#2F2E41"/>
<path d="M204.331 57.457C209.202 57.457 213.151 53.5111 213.151 48.6436C213.151 43.7761 209.202 39.8303 204.331 39.8303C199.46 39.8303 195.511 43.7761 195.511 48.6436C195.511 53.5111 199.46 57.457 204.331 57.457Z" fill="#FFB7B7"/>
<path d="M198.894 62.2508L189.157 111.268C189.157 111.268 205.551 115.97 212.733 111.629C219.914 107.289 216.696 93.89 216.696 93.89L215.381 71.0906L212.95 65.3251L210.888 60.5657L198.894 62.2508Z" fill="#CBCBCB"/>
<path d="M196.044 97.0446L199.408 61.2993L196.718 63.2617L187.312 66.314L186.669 91.48L180.089 124.574C180.089 124.574 184.792 133.743 190.62 118.573L196.044 97.0446Z" fill="#2F2E41"/>
<path d="M191.839 70.0778L187.312 66.3138L177.139 88.3966L165.787 85.9118L165.25 92.6113L181.698 99.1157L192.907 83.5232L191.839 70.0778Z" fill="#2F2E41"/>
<path d="M209.448 89.2205L210.715 60.1287L215.381 63.7387L223.712 66.0592L222.491 89.2205L224.249 125.159L215.514 127.924L213.062 105.246L209.448 89.2205Z" fill="#2F2E41"/>
<path d="M210.008 112.639C210.106 112.093 210.322 111.575 210.642 111.122C210.962 110.669 211.377 110.291 211.858 110.016C212.34 109.74 212.876 109.573 213.429 109.527C213.982 109.481 214.538 109.557 215.059 109.749L223.619 99.333L225.692 106.024L217.245 114.889C216.865 115.741 216.184 116.425 215.333 116.809C214.482 117.194 213.519 117.253 212.627 116.976C211.735 116.699 210.975 116.104 210.493 115.305C210.01 114.505 209.838 113.557 210.008 112.639V112.639Z" fill="#FFB7B7"/>
<path d="M218.134 69.2885L223.712 66.0592L237.748 93.7561L224.063 112.744L216.258 106.508L225.736 94.1581L217.098 80.893L218.134 69.2885Z" fill="#2F2E41"/>
<path d="M212.626 41.5978L213.053 40.7378L210.902 39.6697C210.902 39.6697 208.528 35.8107 204.233 36.8951C199.939 37.9796 198.006 38.6286 198.006 38.6286L195.86 39.7076L196.937 40.7785L195.005 41.4276L196.296 42.0685L194.794 42.9311L195.603 47.3535C195.603 47.3535 196.945 43.9993 199.527 45.2811C202.109 46.5629 206.832 44.6185 206.832 44.6185L210.934 52.5528C210.934 52.5528 211.781 49.7714 213.29 50.5131C213.29 50.5131 217.145 44.3777 212.626 41.5978Z" fill="#2F2E41"/>
<path d="M159.051 54.528H158.994L126.649 68.3293L82.3938 87.2125C82.2209 87.2852 82.0353 87.3231 81.8477 87.3241C81.6601 87.325 81.4742 87.289 81.3005 87.2181L35.6422 68.2899L2.50215 54.5505L2.45153 54.528H2.39511C1.87221 54.5286 1.3709 54.7364 1.00115 55.1059C0.631411 55.4754 0.423434 55.9763 0.422852 56.4988V142.088C0.423435 142.611 0.631411 143.112 1.00115 143.481C1.3709 143.851 1.87221 144.058 2.39511 144.059H159.051C159.574 144.058 160.075 143.851 160.445 143.481C160.814 143.112 161.022 142.611 161.023 142.088V56.4988C161.022 55.9763 160.814 55.4754 160.445 55.1059C160.075 54.7364 159.574 54.5286 159.051 54.528Z" fill="white"/>
<path d="M159.191 55.0911C159.134 55.0911 159.078 55.0735 159.031 55.0407L81.1088 0.814239C80.8716 0.649982 80.5899 0.5622 80.3013 0.562691C80.0128 0.563183 79.7313 0.651922 79.4947 0.816986L2.13425 55.0401C2.07306 55.0829 1.99738 55.0996 1.92383 55.0867C1.85029 55.0737 1.78489 55.0321 1.74201 54.971C1.69913 54.91 1.68227 54.8344 1.69513 54.7608C1.70799 54.6873 1.74952 54.6219 1.8106 54.579L79.1712 0.355921C79.5024 0.124872 79.8965 0.000666015 80.3004 2.67096e-06C80.7044 -0.000660673 81.0989 0.122249 81.4309 0.352209L159.353 54.5785C159.402 54.6128 159.439 54.6618 159.458 54.7186C159.478 54.7753 159.478 54.8367 159.46 54.8939C159.442 54.9511 159.407 55.0011 159.358 55.0365C159.31 55.072 159.251 55.0911 159.191 55.0911L159.191 55.0911Z" fill="#3F3D56"/>
<path d="M6.55469 57.0133L80.3777 2.34216L154.761 60.9034L84.1812 102.713L45.8627 93.9849L6.55469 57.0133Z" fill="#E6E6E6"/>
<path d="M49.0976 128.536H12.6272C12.4032 128.537 12.1813 128.494 11.9742 128.409C11.7671 128.323 11.5788 128.198 11.4201 128.04C11.2614 127.883 11.1354 127.695 11.0493 127.488C10.9633 127.282 10.9188 127.06 10.9185 126.836C10.9181 126.613 10.962 126.391 11.0474 126.184C11.1329 125.977 11.2583 125.789 11.4166 125.631C11.5748 125.473 11.7627 125.347 11.9696 125.261C12.1764 125.175 12.3982 125.131 12.6221 125.131H49.0976C49.3216 125.131 49.5434 125.174 49.7505 125.259C49.9577 125.344 50.146 125.469 50.3047 125.627C50.4633 125.785 50.5893 125.973 50.6754 126.179C50.7615 126.386 50.806 126.608 50.8063 126.831C50.8066 127.055 50.7628 127.277 50.6773 127.484C50.5919 127.691 50.4664 127.879 50.3082 128.037C50.15 128.195 49.9621 128.321 49.7552 128.407C49.5483 128.492 49.3266 128.536 49.1026 128.536H49.0976Z" fill="#00BFA6"/>
<path d="M25.7115 121.216H12.6267C12.4027 121.217 12.1809 121.173 11.9737 121.088C11.7666 121.003 11.5783 120.878 11.4196 120.72C11.2609 120.562 11.1349 120.375 11.0489 120.168C10.9628 119.962 10.9183 119.74 10.918 119.516C10.9176 119.292 10.9615 119.071 11.0469 118.864C11.1324 118.657 11.2578 118.469 11.4161 118.311C11.5743 118.152 11.7622 118.027 11.9691 117.941C12.176 117.855 12.3977 117.811 12.6217 117.811H25.7115C26.163 117.811 26.596 117.99 26.9155 118.309C27.235 118.628 27.4149 119.06 27.4156 119.511C27.4162 119.962 27.2377 120.395 26.9191 120.715C26.6005 121.035 26.168 121.215 25.7165 121.216H25.7115Z" fill="#00BFA6"/>
<path d="M81.416 87.4643C81.1388 87.4646 80.8642 87.4109 80.6076 87.3061L35.0786 68.4289V9.34007C35.0792 8.81757 35.2872 8.31665 35.6569 7.94718C36.0267 7.57772 36.528 7.36988 37.0509 7.36926H124.395C124.918 7.36988 125.419 7.57772 125.789 7.94718C126.159 8.31665 126.367 8.81757 126.367 9.34007V68.4701L126.282 68.5067L82.2488 87.2969C81.9852 87.4076 81.702 87.4645 81.416 87.4643Z" fill="#00BFA6"/>
<path d="M158.628 54.528H158.572L126.226 68.3293L81.9709 87.2125C81.798 87.2852 81.6124 87.3231 81.4248 87.3241C81.2372 87.325 81.0513 87.289 80.8776 87.2181L35.2193 68.2899L2.07933 54.5505L2.02871 54.528H1.97226C1.44936 54.5286 0.948047 54.7364 0.578303 55.1059C0.208559 55.4754 0.000581534 55.9763 0 56.4988V142.088C0.000581536 142.611 0.208559 143.112 0.578303 143.481C0.948048 143.851 1.44936 144.058 1.97226 144.059H158.628C159.151 144.058 159.652 143.851 160.022 143.481C160.392 143.112 160.6 142.611 160.6 142.088V56.4988C160.6 55.9763 160.392 55.4754 160.022 55.1059C159.652 54.7364 159.151 54.5286 158.628 54.528ZM160.037 142.088C160.037 142.462 159.888 142.82 159.624 143.084C159.36 143.347 159.001 143.496 158.628 143.496H1.97226C1.59867 143.496 1.24043 143.347 0.976266 143.084C0.7121 142.82 0.563625 142.462 0.563476 142.088V56.4988C0.563987 56.1348 0.7053 55.785 0.957872 55.5227C1.21044 55.2603 1.55472 55.1057 1.91874 55.0911L35.2193 68.898L80.6608 87.739C81.1527 87.939 81.7039 87.9359 82.1935 87.7305L126.226 68.9403L158.684 55.0911C159.048 55.1068 159.391 55.2619 159.643 55.5241C159.895 55.7862 160.036 56.1354 160.037 56.4988L160.037 142.088Z" fill="#3F3D56"/>
<path d="M74.3276 29.4569H43.3346C42.7375 29.4559 42.1651 29.2181 41.7433 28.7958C41.3214 28.3735 41.0845 27.8012 41.0845 27.2046C41.0845 26.6079 41.3214 26.0356 41.7433 25.6133C42.1651 25.191 42.7375 24.9533 43.3346 24.9522H74.3276C74.9247 24.9533 75.4971 25.191 75.9189 25.6133C76.3408 26.0356 76.5777 26.6079 76.5777 27.2046C76.5777 27.8012 76.3408 28.3735 75.9189 28.7958C75.4971 29.2181 74.9247 29.4559 74.3276 29.4569Z" fill="white"/>
<path d="M58.2676 19.8844H43.3346C42.7368 19.8844 42.1635 19.6471 41.7408 19.2247C41.318 18.8023 41.0806 18.2294 41.0806 17.6321C41.0806 17.0347 41.318 16.4618 41.7408 16.0394C42.1635 15.617 42.7368 15.3797 43.3346 15.3797H58.2676C58.8654 15.3797 59.4387 15.617 59.8614 16.0394C60.2842 16.4618 60.5216 17.0347 60.5216 17.6321C60.5216 18.2294 60.2842 18.8023 59.8614 19.2247C59.4387 19.6471 58.8654 19.8844 58.2676 19.8844Z" fill="white"/>
<path d="M103.903 51.9804H56.5685C55.9707 51.9804 55.3974 51.7431 54.9746 51.3207C54.5519 50.8983 54.3145 50.3254 54.3145 49.7281C54.3145 49.1307 54.5519 48.5578 54.9746 48.1354C55.3974 47.713 55.9707 47.4757 56.5685 47.4757H103.903C104.501 47.4757 105.074 47.713 105.497 48.1354C105.92 48.5578 106.157 49.1307 106.157 49.7281C106.157 50.3254 105.92 50.8983 105.497 51.3207C105.074 51.7431 104.501 51.9804 103.903 51.9804Z" fill="white"/>
<path d="M103.903 62.3976H56.5685C56.2722 62.3981 55.9787 62.3402 55.7047 62.2273C55.4308 62.1143 55.1819 61.9485 54.9721 61.7393C54.7624 61.5301 54.596 61.2816 54.4825 61.0081C54.369 60.7346 54.3105 60.4414 54.3105 60.1452C54.3105 59.8491 54.369 59.5559 54.4825 59.2824C54.596 59.0089 54.7624 58.7604 54.9721 58.5512C55.1819 58.342 55.4308 58.1762 55.7047 58.0632C55.9787 57.9503 56.2722 57.8924 56.5685 57.8929H103.903C104.2 57.8924 104.493 57.9503 104.767 58.0632C105.041 58.1762 105.29 58.342 105.5 58.5512C105.709 58.7604 105.876 59.0089 105.989 59.2824C106.103 59.5559 106.161 59.8491 106.161 60.1452C106.161 60.4414 106.103 60.7346 105.989 61.0081C105.876 61.2816 105.709 61.5301 105.5 61.7393C105.29 61.9485 105.041 62.1143 104.767 62.2273C104.493 62.3402 104.2 62.3981 103.903 62.3976Z" fill="white"/>
<path d="M241.656 196.873H151.226C151.135 196.873 151.047 196.837 150.983 196.772C150.919 196.708 150.882 196.62 150.882 196.529C150.882 196.438 150.919 196.351 150.983 196.286C151.047 196.222 151.135 196.186 151.226 196.186H241.656C241.747 196.186 241.835 196.222 241.899 196.286C241.963 196.351 242 196.438 242 196.529C242 196.62 241.963 196.708 241.899 196.772C241.835 196.837 241.747 196.873 241.656 196.873Z" fill="#CBCBCB"/>
<path d="M83.8339 196.873H50.4815C50.3903 196.873 50.3029 196.837 50.2384 196.772C50.1739 196.708 50.1377 196.62 50.1377 196.529C50.1377 196.438 50.1739 196.351 50.2384 196.286C50.3029 196.222 50.3903 196.186 50.4815 196.186H83.8339C83.9251 196.186 84.0126 196.222 84.0771 196.286C84.1416 196.351 84.1778 196.438 84.1778 196.529C84.1778 196.62 84.1416 196.708 84.0771 196.772C84.0126 196.837 83.9251 196.873 83.8339 196.873Z" fill="#CBCBCB"/>
<path d="M62.7451 186.25C64.0187 186.221 65.2633 185.864 66.3589 185.215C67.4546 184.565 68.3644 183.645 69.0008 182.542C70.6043 179.688 70.1158 176.167 69.5791 172.938L67.9943 163.388L65.2505 167.338C63.277 170.179 61.266 173.101 60.4236 176.455C59.5812 179.809 60.146 183.74 62.7156 186.056" fill="#E6E6E6"/>
<path d="M67.1247 196.884C65.7174 194.294 64.2863 191.673 63.5064 188.813C62.814 186.273 62.6576 183.596 63.44 181.057C63.8559 179.711 64.5036 178.449 65.3538 177.326C65.5757 177.033 66.0171 177.392 65.7966 177.684C64.3269 179.631 63.514 181.994 63.475 184.432C63.4381 187.142 64.2607 189.77 65.3686 192.215C66.038 193.694 66.8115 195.122 67.5865 196.548C67.6288 196.61 67.646 196.685 67.6343 196.759C67.6227 196.833 67.5833 196.9 67.524 196.946C67.4628 196.99 67.3866 197.008 67.3121 196.996C67.2375 196.985 67.1706 196.944 67.1258 196.883L67.1247 196.884Z" fill="#F2F2F2"/>
</g>
<defs>
<clipPath id="clip0">
<rect width="242" height="197" fill="white"/>
</clipPath>
</defs>
</svg>
