<svg width="287" height="204" viewBox="0 0 287 204" fill="none" xmlns="http://www.w3.org/2000/svg">
<g clip-path="url(#clip0)">
<path d="M262.063 183.516C264.58 187.952 262.445 202.933 262.445 202.933C262.445 202.933 248.468 197.034 245.951 192.601C244.745 190.471 244.437 187.951 245.094 185.595C245.751 183.238 247.319 181.239 249.455 180.035C251.59 178.831 254.117 178.521 256.481 179.174C258.845 179.827 260.853 181.388 262.063 183.516V183.516Z" fill="#F1F1F1"/>
<path d="M262.648 202.913L262.351 202.976C259.491 189.43 249.503 180.244 249.403 180.153L249.607 179.929C249.708 180.021 259.767 189.269 262.648 202.913Z" fill="white"/>
<path d="M284.934 188.567C281.518 194.744 262.261 203.111 262.261 203.111C262.261 203.111 259.086 182.41 262.5 176.235C264.14 173.269 266.895 171.074 270.159 170.134C273.422 169.193 276.927 169.583 279.902 171.218C282.877 172.854 285.078 175.6 286.022 178.854C286.966 182.107 286.574 185.601 284.934 188.567Z" fill="#F1F1F1"/>
<path d="M262.431 203.336L262.142 203.032C276.077 189.839 279.684 171.438 279.719 171.254L280.132 171.331C280.097 171.517 276.467 190.047 262.431 203.336Z" fill="white"/>
<path d="M67.4743 141.794C65.2704 141.786 63.0762 141.503 60.943 140.951L60.5226 140.835L60.1325 140.641C46.0319 133.593 34.1359 124.283 24.775 112.971C17.0261 103.552 10.9847 92.8572 6.92252 81.3683C2.06475 67.6132 -0.272312 53.0994 0.0228974 38.5197C0.0288541 38.2137 0.0338954 37.9774 0.0338954 37.8146C0.0338954 30.7273 3.98007 24.5087 10.0872 21.9719C14.7613 20.0304 57.2 2.65297 60.2663 1.3974C66.041 -1.48714 72.2016 0.920464 73.1874 1.34149C75.3988 2.24281 114.631 18.2396 123.109 22.2641C131.846 26.412 134.177 33.8634 134.177 37.6123C134.177 54.5849 131.229 70.4471 125.413 84.7584C120.717 96.3424 114.061 107.037 105.734 116.375C89.6699 134.398 73.601 140.787 73.4459 140.843C71.5255 141.502 69.505 141.823 67.4743 141.794ZM63.6954 132.462C65.0885 132.773 68.2959 133.241 70.3865 132.48C73.0422 131.515 86.4916 124.562 99.0596 110.462C116.424 90.9813 125.235 66.4921 125.248 37.6749C125.217 37.0911 124.801 32.9271 119.27 30.3013C110.956 26.3547 70.1778 9.73197 69.7669 9.56443L69.6542 9.51681C68.7996 9.15981 66.0799 8.40784 64.2052 9.38722L63.8299 9.56167C63.3753 9.74778 18.3262 28.1933 13.5216 30.1889C10.1607 31.585 8.96327 35.0435 8.96327 37.8146C8.96327 38.0171 8.95801 38.3117 8.95059 38.6924C8.5666 58.4103 13.1436 106.93 63.6954 132.462Z" fill="#3F3D56"/>
<path d="M62.134 5.44441C62.134 5.44441 16.6754 24.0572 11.8048 26.0804C6.93424 28.1035 4.49896 32.959 4.49896 37.8146C4.49896 42.6701 0.846043 106.028 62.134 136.662C62.134 136.662 67.6965 138.196 71.9167 136.662C76.1369 135.127 129.713 109.231 129.713 37.6123C129.713 37.6123 129.713 30.329 121.19 26.2827C112.666 22.2364 71.4565 5.44441 71.4565 5.44441C71.4565 5.44441 66.3957 3.21896 62.134 5.44441Z" fill="#00BFA6"/>
<path opacity="0.1" d="M67.0042 20.011V119.304C67.0042 119.304 21.1398 97.2947 21.5456 39.4331L67.0042 20.011Z" fill="black"/>
<path d="M67.6023 91.3742L52.9922 72.6467L61.4886 66.059L68.4065 74.926L91.7762 50.3322L99.5911 57.7135L67.6023 91.3742Z" fill="white"/>
<path d="M286.65 204H153.148C153.055 204 152.966 203.963 152.9 203.898C152.835 203.832 152.798 203.743 152.798 203.651C152.798 203.558 152.835 203.469 152.9 203.404C152.966 203.338 153.055 203.301 153.148 203.301H286.65C286.743 203.301 286.832 203.338 286.897 203.404C286.963 203.469 287 203.558 287 203.651C287 203.743 286.963 203.832 286.897 203.898C286.832 203.963 286.743 204 286.65 204Z" fill="#CACACA"/>
<path d="M191.739 198.494L197.158 198.493L199.736 177.656L191.738 177.656L191.739 198.494Z" fill="#FFB8B8"/>
<path d="M190.357 196.73L201.029 196.729H201.03C202.833 196.73 204.563 197.444 205.839 198.715C207.114 199.987 207.831 201.711 207.831 203.51V203.73L190.357 203.731L190.357 196.73Z" fill="#2F2E41"/>
<path d="M209.96 198.494L215.379 198.493L217.957 177.656L209.959 177.656L209.96 198.494Z" fill="#FFB8B8"/>
<path d="M208.578 196.73L219.25 196.729H219.25C221.054 196.73 222.784 197.444 224.059 198.715C225.335 199.987 226.051 201.711 226.052 203.51V203.73L208.578 203.731L208.578 196.73Z" fill="#2F2E41"/>
<path d="M200.257 125.317L201.557 191.425L191.041 190.775L183.746 148.668L181.442 119.958L200.257 125.317Z" fill="#2F2E41"/>
<path d="M218.304 114.216L219.778 192.473L207.514 192.123L204.865 145.605L200.257 128.762L181.442 119.958L184.514 98.9042L212.16 98.5214L218.304 114.216Z" fill="#2F2E41"/>
<path d="M197.16 44.1647C202.354 44.1647 206.564 39.9674 206.564 34.7897C206.564 29.612 202.354 25.4147 197.16 25.4147C191.966 25.4147 187.756 29.612 187.756 34.7897C187.756 39.9674 191.966 44.1647 197.16 44.1647Z" fill="#FFB8B8"/>
<path d="M204.96 48.1139L206.401 50.2894L210.241 61.0075L207.169 102.732L189.121 103.115L186.818 55.2654L191.644 49.2516L204.96 48.1139Z" fill="#CCCCCC"/>
<path d="M179.522 56.414L176.45 56.0312C176.45 56.0312 175.682 56.414 175.298 59.0936C174.914 61.7731 170.307 85.5064 170.307 85.5064L176.45 114.599L183.362 105.412L179.138 89.3343L183.362 73.257L179.522 56.414Z" fill="#2F2E41"/>
<path d="M218.688 56.0315H220.992L226.752 87.0374L221.376 111.153L216 102.349L217.536 92.7794L216.768 84.3581L214.08 79.3814L218.688 56.0315Z" fill="#2F2E41"/>
<path d="M202.717 34.7896L201.007 34.3635C201.007 34.3635 199.725 27.1192 196.732 27.9714C193.74 28.8237 186.046 29.676 186.046 26.2669C186.046 22.8578 193.313 19.8748 197.587 20.301C201.862 20.7271 207.321 22.1408 208.701 28.3976C210.913 38.4274 204.137 40.9608 204.137 40.9608L204.249 40.5957C204.563 39.5817 204.585 38.5006 204.314 37.4746C204.043 36.4486 203.49 35.5186 202.717 34.7896Z" fill="#2F2E41"/>
<path d="M176.834 56.0313L189.121 51.055L192.001 48.9497L200.641 87.0376L204.672 47.8013L220.608 56.0313L215.232 82.0613L214.464 92.0139L216.768 100.053C216.768 100.053 224.831 105.794 222.144 111.919C219.456 118.044 216.384 118.427 216.384 118.427C216.384 118.427 203.329 106.177 202.561 103.115C201.793 100.053 200.641 94.6935 200.641 94.6935C200.641 94.6935 194.113 119.192 186.434 118.809C178.754 118.427 178.754 110.388 178.754 110.388L180.674 101.967L183.746 93.1623L182.21 78.6161L176.834 56.0313Z" fill="#2F2E41"/>
</g>
<defs>
<clipPath id="clip0">
<rect width="287" height="204" fill="white"/>
</clipPath>
</defs>
</svg>
