<svg width="371" height="165" viewBox="0 0 371 165" fill="none" xmlns="http://www.w3.org/2000/svg">
<g clip-path="url(#clip0)">
<path d="M157.942 105.413H7.64226C5.61611 105.41 3.67359 104.603 2.24088 103.168C0.80817 101.733 0.00227422 99.7869 0 97.7573V5.82979C0.0017078 4.28419 0.615388 2.80239 1.70641 1.70947C2.79743 0.616547 4.27668 0.00176448 5.81964 0H159.678C161.244 0.00176667 162.745 0.625659 163.853 1.73479C164.96 2.84393 165.583 4.34773 165.584 5.91627V97.7573C165.582 99.7869 164.776 101.733 163.344 103.168C161.911 104.603 159.968 105.41 157.942 105.413Z" fill="white"/>
<path d="M157.942 105.413H7.64226C5.61611 105.41 3.67359 104.603 2.24088 103.168C0.80817 101.733 0.00227422 99.7869 0 97.7573V5.82979C0.0017078 4.28419 0.615388 2.80239 1.70641 1.70947C2.79743 0.616547 4.27668 0.00176448 5.81964 0H159.678C161.244 0.00176667 162.745 0.625659 163.853 1.73479C164.96 2.84393 165.583 4.34773 165.584 5.91627V97.7573C165.582 99.7869 164.776 101.733 163.344 103.168C161.911 104.603 159.968 105.41 157.942 105.413ZM5.81964 1.6552C4.71478 1.6565 3.65554 2.09675 2.8743 2.87936C2.09306 3.66197 1.65362 4.72304 1.65238 5.82979V97.7573C1.65419 99.3481 2.28584 100.873 3.40877 101.998C4.5317 103.123 6.0542 103.756 7.64226 103.757H157.942C159.53 103.756 161.053 103.123 162.176 101.998C163.299 100.873 163.93 99.3481 163.932 97.7573V5.91627C163.931 4.78656 163.482 3.70347 162.685 2.90464C161.887 2.10581 160.806 1.65647 159.678 1.6552H5.81964Z" fill="#E6E6E6"/>
<path d="M68.6198 82.1379H23.5842C22.4823 82.1362 21.4185 81.7343 20.59 81.0065C19.7616 80.2788 19.2248 79.2748 19.0794 78.1807C19.052 77.9837 19.0389 77.785 19.0401 77.5861V27.8265C19.0415 26.6197 19.5207 25.4627 20.3725 24.6094C21.2244 23.756 22.3794 23.276 23.5842 23.2747H68.6198C69.8245 23.276 70.9795 23.756 71.8314 24.6094C72.6833 25.4627 73.1625 26.6197 73.1638 27.8265V77.5861C73.1625 78.7929 72.6833 79.9498 71.8314 80.8032C70.9795 81.6565 69.8245 82.1365 68.6198 82.1379ZM23.5842 25.7575C23.0366 25.7581 22.5116 25.9763 22.1243 26.3642C21.7371 26.752 21.5193 27.2779 21.5187 27.8265V77.5861C21.5178 77.6711 21.5231 77.7561 21.5344 77.8404C21.5977 78.3407 21.8406 78.8008 22.2178 79.1348C22.595 79.4688 23.0807 79.6537 23.5842 79.6551H68.6198C69.1674 79.6544 69.6924 79.4363 70.0796 79.0484C70.4668 78.6605 70.6846 78.1346 70.6853 77.5861V27.8265C70.6846 27.2779 70.4668 26.752 70.0796 26.3642C69.6924 25.9763 69.1674 25.7581 68.6198 25.7575H23.5842Z" fill="#E6E6E6"/>
<path d="M143.24 65.9582H88.711C87.8345 65.9582 86.994 65.6095 86.3742 64.9886C85.7544 64.3678 85.4062 63.5258 85.4062 62.6478C85.4062 61.7698 85.7544 60.9278 86.3742 60.307C86.994 59.6862 87.8345 59.3374 88.711 59.3374H143.24C144.116 59.3374 144.957 59.6862 145.576 60.307C146.196 60.9278 146.544 61.7698 146.544 62.6478C146.544 63.5258 146.196 64.3678 145.576 64.9886C144.957 65.6095 144.116 65.9582 143.24 65.9582Z" fill="#E6E6E6"/>
<path d="M118.454 51.889H88.711C87.8345 51.889 86.994 51.5402 86.3742 50.9194C85.7544 50.2986 85.4062 49.4565 85.4062 48.5786C85.4062 47.7006 85.7544 46.8586 86.3742 46.2378C86.994 45.6169 87.8345 45.2682 88.711 45.2682H118.454C119.33 45.2682 120.171 45.6169 120.791 46.2378C121.41 46.8586 121.759 47.7006 121.759 48.5786C121.759 49.4565 121.41 50.2986 120.791 50.9194C120.171 51.5402 119.33 51.889 118.454 51.889Z" fill="#E6E6E6"/>
<path d="M60.9513 51.3387C60.9513 58.6518 54.2007 57.5457 45.8734 57.5457C37.546 57.5457 30.7954 58.6518 30.7954 51.3387C30.7954 44.0255 34.0929 31.0624 45.8734 31.0624C58.0597 31.0624 60.9513 44.0255 60.9513 51.3387Z" fill="#2F2E41"/>
<path d="M61.5611 63.6467C61.2702 62.8058 60.6904 62.096 59.9252 61.6439C59.7775 61.553 59.6228 61.4742 59.4625 61.408C58.7914 61.1285 58.0536 61.0509 57.3392 61.1846C56.6248 61.3184 55.9647 61.6578 55.4398 62.1613C54.9148 62.6647 54.5476 63.3105 54.3832 64.0197C54.2187 64.7288 54.264 65.4706 54.5136 66.1543L60.52 79.8305H68.4308L61.5611 63.6467Z" fill="#3F3D56"/>
<path d="M35.3499 64.3915C34.8752 64.1617 34.3573 64.0351 33.8302 64.0198C33.3032 64.0046 32.7789 64.1012 32.2917 64.3032C31.8045 64.5052 31.3654 64.8081 31.0033 65.192C30.6412 65.5759 30.3642 66.0322 30.1905 66.5309L24.5972 79.7105C24.8836 79.7905 25.1796 79.8309 25.477 79.8305H32.4956L37.2377 69.0385C37.554 68.1673 37.536 67.2095 37.1872 66.3508C36.8384 65.4922 36.1836 64.7939 35.3499 64.3915Z" fill="#3F3D56"/>
<path d="M45.8228 57.5335C51.4263 57.5335 55.9688 52.9832 55.9688 47.3701C55.9688 41.757 51.4263 37.2067 45.8228 37.2067C40.2193 37.2067 35.6768 41.757 35.6768 47.3701C35.6768 52.9832 40.2193 57.5335 45.8228 57.5335Z" fill="#FFB8B8"/>
<path d="M60.103 61.8053C60.0453 61.7515 59.9874 61.6935 59.9255 61.6439C59.2182 61.0051 58.3811 60.5275 57.4718 60.2439C56.5626 59.9603 55.6028 59.8774 54.6585 60.0011L35.9617 62.3722C34.249 62.5844 32.6862 63.4567 31.6049 64.804C30.5237 66.1514 30.009 67.8677 30.1701 69.5889C30.4263 72.4772 30.8394 76.1228 31.5004 79.8304H61.0367L62.1231 67.1847C62.2105 66.1937 62.0743 65.1957 61.7246 64.2645C61.375 63.3333 60.8207 62.4929 60.103 61.8053Z" fill="#3F3D56"/>
<path d="M34.1001 46.3731H38.1131L39.8834 41.4074L40.2374 46.3731H42.1555L43.1882 43.4764L43.3947 46.3731H57.6465C57.6465 43.5196 56.5149 40.7831 54.5007 38.7654C52.4865 36.7477 49.7546 35.6142 46.906 35.6142H44.8406C41.992 35.6142 39.2601 36.7477 37.2459 38.7654C35.2317 40.7831 34.1001 43.5196 34.1001 46.3731Z" fill="#2F2E41"/>
<path d="M205.416 97.7573V5.91627C205.417 4.34773 206.04 2.84393 207.147 1.73479C208.255 0.625659 209.756 0.00176667 211.322 0H365.18C366.723 0.00176448 368.203 0.616547 369.294 1.70947C370.385 2.80239 370.998 4.28419 371 5.82979V97.7573C370.998 99.7869 370.192 101.733 368.759 103.168C367.326 104.603 365.384 105.41 363.358 105.413H213.058C211.032 105.41 209.089 104.603 207.656 103.168C206.224 101.733 205.418 99.7869 205.416 97.7573Z" fill="white"/>
<path d="M205.416 97.7573V5.91627C205.417 4.34773 206.04 2.84393 207.147 1.73479C208.255 0.625659 209.756 0.00176667 211.322 0H365.18C366.723 0.00176448 368.203 0.616547 369.294 1.70947C370.385 2.80239 370.998 4.28419 371 5.82979V97.7573C370.998 99.7869 370.192 101.733 368.759 103.168C367.326 104.603 365.384 105.41 363.358 105.413H213.058C211.032 105.41 209.089 104.603 207.656 103.168C206.224 101.733 205.418 99.7869 205.416 97.7573ZM211.322 1.6552C210.194 1.65647 209.113 2.10581 208.315 2.90464C207.518 3.70347 207.069 4.78656 207.068 5.91627V97.7573C207.07 99.3481 207.701 100.873 208.824 101.998C209.947 103.123 211.47 103.756 213.058 103.757H363.358C364.946 103.756 366.468 103.123 367.591 101.998C368.714 100.873 369.346 99.3481 369.348 97.7573V5.82979C369.346 4.72304 368.907 3.66197 368.126 2.87936C367.344 2.09675 366.285 1.6565 365.18 1.6552H211.322Z" fill="#E6E6E6"/>
<path d="M297.836 77.5861V27.8265C297.837 26.6197 298.316 25.4627 299.168 24.6094C300.02 23.756 301.175 23.276 302.38 23.2747H347.416C348.62 23.276 349.775 23.756 350.627 24.6094C351.479 25.4627 351.958 26.6197 351.96 27.8265V77.5861C351.961 77.785 351.948 77.9837 351.92 78.1807C351.775 79.2748 351.238 80.2788 350.41 81.0065C349.581 81.7343 348.517 82.1362 347.416 82.1379H302.38C301.175 82.1365 300.02 81.6565 299.168 80.8032C298.316 79.9498 297.837 78.7929 297.836 77.5861ZM302.38 25.7575C301.832 25.7581 301.307 25.9763 300.92 26.3642C300.533 26.752 300.315 27.2779 300.315 27.8265V77.5861C300.315 78.1346 300.533 78.6605 300.92 79.0484C301.307 79.4363 301.832 79.6544 302.38 79.6551H347.416C347.919 79.6537 348.405 79.4688 348.782 79.1348C349.159 78.8008 349.402 78.3407 349.465 77.8404C349.477 77.7561 349.482 77.6711 349.481 77.5861V27.8265C349.48 27.2779 349.263 26.752 348.875 26.3642C348.488 25.9763 347.963 25.7581 347.416 25.7575H302.38Z" fill="#E6E6E6"/>
<path d="M224.456 62.6478C224.457 61.7701 224.806 60.9287 225.425 60.3081C226.045 59.6875 226.885 59.3384 227.761 59.3374H282.289C283.166 59.3374 284.006 59.6862 284.626 60.307C285.246 60.9278 285.594 61.7698 285.594 62.6478C285.594 63.5258 285.246 64.3678 284.626 64.9886C284.006 65.6095 283.166 65.9582 282.289 65.9582H227.761C226.885 65.9572 226.045 65.6081 225.425 64.9875C224.806 64.3669 224.457 63.5255 224.456 62.6478Z" fill="#E6E6E6"/>
<path d="M224.456 48.5786C224.457 47.7009 224.806 46.8595 225.425 46.2389C226.045 45.6183 226.885 45.2692 227.761 45.2682H257.504C258.38 45.2682 259.221 45.6169 259.84 46.2378C260.46 46.8586 260.808 47.7006 260.808 48.5786C260.808 49.4565 260.46 50.2986 259.84 50.9194C259.221 51.5402 258.38 51.889 257.504 51.889H227.761C226.885 51.888 226.045 51.5389 225.425 50.9183C224.806 50.2977 224.457 49.4562 224.456 48.5786Z" fill="#E6E6E6"/>
<path d="M313.768 42.6115C316.664 48.3152 318.947 54.198 325.335 54.198C328.403 54.198 331.345 52.9773 333.514 50.8044C335.683 48.6315 336.902 45.6844 336.902 42.6115C336.902 39.5386 335.683 36.5916 333.514 34.4187C331.345 32.2458 328.403 31.0251 325.335 31.0251C318.843 30.9437 308.378 31.9953 313.768 42.6115Z" fill="#2F2E41"/>
<path d="M324.766 54.4236C330.369 54.4236 334.912 49.8733 334.912 44.2602C334.912 38.6471 330.369 34.0968 324.766 34.0968C319.162 34.0968 314.62 38.6471 314.62 44.2602C314.62 49.8733 319.162 54.4236 324.766 54.4236Z" fill="#A0616A"/>
<path d="M338.617 62.786C337.963 62.0722 337.252 61.4135 336.49 60.8163C333.16 58.2016 328.985 56.9055 324.762 57.1749C324.593 57.1831 324.424 57.1955 324.254 57.2121C321.808 57.4079 319.432 58.1233 317.284 59.3105C315.136 60.4978 313.265 62.1297 311.795 64.0977C310.303 66.0958 309.254 68.3901 308.718 70.8272C308.182 73.2643 308.172 75.7879 308.689 78.2291C308.8 78.7463 308.899 79.2677 308.994 79.7891H342.629L343.017 77.1821C343.405 74.6057 343.211 71.9748 342.45 69.4833C341.689 66.9919 340.379 64.7032 338.617 62.786Z" fill="#3F3D56"/>
<path d="M343.769 65.5047C343.532 64.1449 342.826 62.9115 341.775 62.0193C340.723 61.1271 339.393 60.6326 338.015 60.6218C337.961 60.6218 337.903 60.626 337.85 60.626C337.391 60.6365 336.935 60.7004 336.49 60.8163C335.744 61.0151 335.044 61.3595 334.431 61.83C333.817 62.3005 333.303 62.8876 332.917 63.5578C332.531 64.2279 332.28 64.9679 332.181 65.7352C332.081 66.5024 332.133 67.2819 332.335 68.0289L335.511 79.7891H346.202L343.769 65.5047Z" fill="#3F3D56"/>
<path d="M320.243 62.4218C319.84 61.6291 319.262 60.9386 318.554 60.4025C318.052 60.0229 317.491 59.7292 316.893 59.5335C316.649 59.4499 316.399 59.3835 316.145 59.3349C314.764 59.073 313.334 59.3144 312.115 60.0155C310.895 60.7166 309.966 61.8313 309.494 63.1584L303.678 79.7891H314.716L320.346 67.5571C320.722 66.7501 320.908 65.8676 320.89 64.9775C320.872 64.0873 320.651 63.2131 320.243 62.4218Z" fill="#3F3D56"/>
<path d="M314 38.5164C316.318 40.1172 319.07 40.9691 321.886 40.9578C320.881 41.6554 319.738 42.1267 318.534 42.3391C322.278 43.1435 326.147 43.1653 329.9 42.403C330.734 42.2691 331.539 41.9921 332.279 41.5844C332.648 41.3781 332.97 41.0962 333.223 40.7572C333.476 40.4183 333.655 40.0297 333.748 39.6169C333.997 38.1899 332.887 36.8935 331.734 36.0197C329.968 34.7024 327.931 33.7948 325.772 33.3625C323.612 32.9303 321.384 32.9842 319.248 33.5205C317.853 33.8816 316.456 34.4918 315.55 35.6138C314.644 36.7358 314.376 38.4655 315.239 39.6208L314 38.5164Z" fill="#2F2E41"/>
<path d="M260.65 165H110.35C108.324 164.998 106.382 164.19 104.949 162.755C103.516 161.32 102.71 159.374 102.708 157.345V65.4172C102.71 63.8716 103.323 62.3898 104.414 61.2968C105.505 60.2039 106.985 59.5891 108.528 59.5874H262.386C263.952 59.5891 265.453 60.213 266.561 61.3222C267.668 62.4313 268.291 63.9351 268.292 65.5036V157.345C268.29 159.374 267.484 161.32 266.052 162.755C264.619 164.19 262.676 164.998 260.65 165Z" fill="white"/>
<path d="M260.65 165H110.35C108.324 164.998 106.382 164.19 104.949 162.755C103.516 161.32 102.71 159.374 102.708 157.345V65.4172C102.71 63.8716 103.323 62.3898 104.414 61.2968C105.505 60.2039 106.985 59.5891 108.528 59.5874H262.386C263.952 59.5891 265.453 60.213 266.561 61.3222C267.668 62.4313 268.291 63.9351 268.292 65.5036V157.345C268.29 159.374 267.484 161.32 266.052 162.755C264.619 164.19 262.676 164.998 260.65 165ZM108.528 61.2426C107.423 61.2439 106.364 61.6841 105.582 62.4667C104.801 63.2493 104.362 64.3104 104.36 65.4172V157.345C104.362 158.935 104.994 160.461 106.117 161.585C107.24 162.71 108.762 163.343 110.35 163.345H260.65C262.238 163.343 263.761 162.71 264.884 161.585C266.007 160.461 266.638 158.935 266.64 157.345V65.5036C266.639 64.3739 266.19 63.2908 265.393 62.492C264.595 61.6932 263.514 61.2438 262.386 61.2426H108.528Z" fill="#3F3D56"/>
<path d="M171.328 141.725H126.292C125.19 141.724 124.126 141.322 123.298 140.594C122.47 139.866 121.933 138.862 121.787 137.768C121.76 137.571 121.747 137.372 121.748 137.173V87.4139C121.749 86.2071 122.229 85.0501 123.081 84.1967C123.932 83.3434 125.087 82.8634 126.292 82.862H171.328C172.533 82.8634 173.688 83.3434 174.539 84.1967C175.391 85.0501 175.871 86.2071 175.872 87.4139V137.173C175.871 138.38 175.391 139.537 174.539 140.391C173.688 141.244 172.533 141.724 171.328 141.725ZM126.292 85.3448C125.745 85.3455 125.22 85.5637 124.832 85.9515C124.445 86.3394 124.227 86.8653 124.227 87.4139V137.173C124.226 137.259 124.231 137.344 124.242 137.428C124.306 137.928 124.549 138.388 124.926 138.722C125.303 139.056 125.789 139.241 126.292 139.242H171.328C171.875 139.242 172.4 139.024 172.788 138.636C173.175 138.248 173.393 137.722 173.393 137.173V87.4139C173.393 86.8653 173.175 86.3394 172.788 85.9515C172.4 85.5637 171.875 85.3455 171.328 85.3448H126.292Z" fill="#E6E6E6"/>
<path d="M148.156 91.959C145.224 90.5928 141.625 90.1449 138.642 91.4144C135.659 92.6839 133.625 95.9379 134.589 98.8177C135.027 100.123 136.023 101.407 135.635 102.726C135.336 103.741 134.294 104.411 133.271 104.888C132.247 105.364 131.128 105.765 130.388 106.568C129.648 107.372 129.494 108.755 130.418 109.379C130.723 109.584 131.103 109.681 131.399 109.898C131.65 110.102 131.832 110.381 131.918 110.694C132.004 111.007 131.991 111.34 131.88 111.645C131.634 112.259 131.227 112.795 130.702 113.197C129.653 114.103 128.266 115.141 128.591 116.428C128.712 116.772 128.914 117.082 129.18 117.331C129.446 117.58 129.768 117.761 130.119 117.859C130.847 118.069 131.603 118.169 132.36 118.155L163.329 119.133C164.351 119.209 165.379 119.152 166.386 118.961C166.876 118.872 167.342 118.682 167.755 118.404C168.168 118.126 168.52 117.766 168.787 117.346C169.381 116.246 168.991 114.891 168.259 113.865C167.526 112.838 166.49 112.028 165.633 111.085C164.777 110.142 164.076 108.965 164.227 107.747C164.348 106.771 164.99 105.928 165.451 105.042C165.912 104.156 166.18 103.048 165.583 102.233C164.742 101.084 162.722 101.188 161.765 100.117C161.043 99.3091 161.182 98.1459 161.111 97.104C160.938 94.5978 159.206 92.2309 156.74 91.1318C155.486 90.5926 154.122 90.3599 152.761 90.4527C151.4 90.5456 150.08 90.9615 148.91 91.6659L148.156 91.959Z" fill="#2F2E41"/>
<path d="M149.302 118.892C154.905 118.892 159.448 114.342 159.448 108.729C159.448 103.116 154.905 98.5654 149.302 98.5654C143.698 98.5654 139.156 103.116 139.156 108.729C139.156 114.342 143.698 118.892 149.302 118.892Z" fill="#A0616A"/>
<path d="M162.623 132.017C162.612 130.236 162.12 128.491 161.197 126.968C160.275 125.445 158.957 124.201 157.385 123.369C157.257 123.299 157.124 123.237 156.992 123.175C155.85 122.632 154.614 122.318 153.353 122.248L143.695 121.706C142.331 121.628 140.965 121.838 139.688 122.322C139.376 122.438 139.072 122.571 138.775 122.719C137.841 123.18 136.988 123.788 136.246 124.519C135.27 125.485 134.507 126.644 134.004 127.922C133.502 129.201 133.272 130.57 133.33 131.943L133.504 136.044L134.718 139.201H161.722C162.057 138.794 162.348 138.353 162.59 137.885C163.047 136.976 163.289 135.973 163.294 134.955C163.3 133.937 163.07 132.932 162.623 132.017Z" fill="#3F3D56"/>
<path d="M161.961 126.58C161.521 125.622 160.83 124.802 159.962 124.205C159.336 123.775 158.633 123.469 157.892 123.303C157.596 123.237 157.295 123.195 156.992 123.175C156.396 123.134 155.796 123.185 155.216 123.328C154.348 123.544 153.542 123.954 152.856 124.529C152.171 125.103 151.625 125.826 151.259 126.642C150.893 127.459 150.718 128.348 150.746 129.243C150.773 130.137 151.004 131.014 151.419 131.806L155.133 138.849L155.319 139.201H167.79L161.961 126.58Z" fill="#3F3D56"/>
<path d="M141.55 122.91C140.966 122.612 140.336 122.413 139.687 122.322C139.204 122.253 138.714 122.246 138.229 122.301C136.995 122.441 135.837 122.969 134.92 123.808C134.002 124.647 133.374 125.755 133.123 126.973L130.607 139.201H140.447L142.286 138.448L144.574 129.651C144.907 128.35 144.789 126.975 144.24 125.75C143.69 124.525 142.742 123.524 141.55 122.91Z" fill="#3F3D56"/>
<path d="M138.922 107.284C142.126 107.026 144.786 103.82 144.453 100.617C144.416 101.937 144.864 103.225 145.712 104.236C146.561 105.246 147.751 105.909 149.056 106.098C150.525 106.26 152.137 105.815 153.416 106.558C154.833 107.38 155.286 109.378 156.762 110.089C158.189 110.775 160 109.839 160.705 108.42C161.409 107 161.236 105.295 160.769 103.781C160.103 101.621 158.891 99.6708 157.249 98.1196C155.608 96.5683 153.594 95.469 151.403 94.9285C149.212 94.388 146.918 94.4247 144.745 95.0351C142.573 95.6455 140.595 96.8088 139.004 98.4118C137.656 99.7693 136.587 101.499 136.413 103.406C136.24 105.312 137.122 107.38 138.831 108.237L138.922 107.284Z" fill="#2F2E41"/>
<path d="M245.947 125.546H191.419C190.542 125.546 189.701 125.197 189.082 124.576C188.462 123.955 188.114 123.113 188.114 122.235C188.114 121.357 188.462 120.515 189.082 119.894C189.701 119.274 190.542 118.925 191.419 118.925H245.947C246.824 118.925 247.664 119.274 248.284 119.894C248.904 120.515 249.252 121.357 249.252 122.235C249.252 123.113 248.904 123.955 248.284 124.576C247.664 125.197 246.824 125.546 245.947 125.546Z" fill="#E6E6E6"/>
<path d="M221.161 111.476H191.419C190.542 111.476 189.701 111.128 189.082 110.507C188.462 109.886 188.114 109.044 188.114 108.166C188.114 107.288 188.462 106.446 189.082 105.825C189.701 105.204 190.542 104.856 191.419 104.856H221.161C222.038 104.856 222.878 105.204 223.498 105.825C224.118 106.446 224.466 107.288 224.466 108.166C224.466 109.044 224.118 109.886 223.498 110.507C222.878 111.128 222.038 111.476 221.161 111.476Z" fill="#00BFA6"/>
<path d="M237.121 135.652C234.234 135.658 231.468 136.81 229.429 138.856C227.389 140.903 226.244 143.676 226.244 146.567C226.244 149.459 227.389 152.232 229.429 154.279C231.468 156.325 234.234 157.477 237.121 157.483H237.121C240.007 157.477 242.774 156.325 244.813 154.279C246.852 152.232 247.997 149.459 247.997 146.567C247.997 143.676 246.852 140.903 244.813 138.856C242.774 136.81 240.007 135.658 237.121 135.652Z" fill="#00BFA6"/>
<path d="M236.087 151.101C235.8 151.101 235.521 151.008 235.291 150.836L235.277 150.825L232.28 148.529C232.001 148.313 231.818 147.996 231.772 147.645C231.726 147.295 231.82 146.94 232.035 146.66C232.25 146.379 232.567 146.196 232.917 146.149C233.266 146.103 233.62 146.197 233.901 146.412L235.842 147.903L240.428 141.909C240.535 141.77 240.667 141.653 240.819 141.566C240.97 141.478 241.137 141.421 241.31 141.398C241.484 141.375 241.66 141.387 241.829 141.432C241.997 141.477 242.156 141.555 242.294 141.662L242.295 141.662L242.266 141.702L242.296 141.662C242.575 141.878 242.759 142.195 242.805 142.546C242.851 142.897 242.756 143.251 242.542 143.532L237.147 150.579C237.022 150.741 236.862 150.873 236.678 150.963C236.494 151.053 236.292 151.1 236.088 151.099L236.087 151.101Z" fill="white"/>
</g>
<defs>
<clipPath id="clip0">
<rect width="371" height="165" fill="white"/>
</clipPath>
</defs>
</svg>
